<svg width="1389" height="268" viewBox="0 0 1389 268" fill="none" xmlns="http://www.w3.org/2000/svg"><path d="M179.94 133.82c0 40.23-7.04 71.7-21.14 94.42-7.86 12.78-17.7 22.6-29.5 29.47-11.63 6.86-25.23 10.29-40.8 10.29-14.59 0-27.45-3.08-38.6-9.23-10.98-6.39-20.16-15.38-27.53-26.98C15 219.96 9.42 205.9 5.65 189.55 1.88 173 0 154.41 0 133.82c0-20.11 1.88-38.45 5.65-55.02 3.94-16.56 9.67-30.64 17.21-42.24 7.7-11.6 17.2-20.59 28.52-26.98C62.85 3.2 76.04 0 90.96 0c14.9 0 27.94 3.2 39.08 9.58 11.15 6.4 20.4 15.39 27.78 26.98 7.37 11.6 12.86 25.68 16.47 42.24 3.77 16.57 5.65 34.9 5.65 55.02zm-56.04-.35c0-11.36-.74-22.84-2.22-34.43-1.47-11.6-3.6-21.18-6.39-28.76-2.78-7.57-6.23-13.25-10.32-17.04-3.94-4.02-8.93-6.03-15-6.03-7.05 0-12.7 2.72-16.96 8.16-4.26 5.21-7.78 12.78-10.57 22.72-2.13 7.81-3.69 16.8-4.67 26.98a295.65 295.65 0 00-1.48 29.1c0 12.31.5 23.79 1.48 34.44 1.15 10.41 2.95 19.52 5.4 27.33 2.63 7.57 6.07 13.6 10.33 18.1 4.43 4.27 9.83 6.4 16.23 6.4 6.39 0 11.8-2.13 16.22-6.4 4.42-4.5 7.95-10.64 10.57-18.45 2.62-7.81 4.5-16.92 5.66-27.34a326.03 326.03 0 001.72-34.78zM298.1 262.32V156.54h-56.54v105.78H187V5.68h54.57V107.9h56.54V5.68h54.58v256.64H298.1zM462.9 262.32L408.07 73.48v188.84h-46.96V5.68h72.52l54.57 184.58V5.68h47.2v256.64H462.9zM543.66 262.32V5.68h132.99V54.3h-80.39v54.31h76.46v47.56h-76.46v58.22h83.1v47.92h-135.7zM685.55 262.32V5.68h54.58v256.64h-54.58zM908.57 182.8c0 16.81-2.7 30.77-8.11 41.9-5.41 10.88-12.3 19.52-20.65 25.9a76.6 76.6 0 01-27.78 13.5c-10 2.6-19.67 3.9-29 3.9-12.3 0-23.44-1.54-33.44-4.62-10-3.07-18.6-7.92-25.81-14.55-7.05-6.86-12.54-15.62-16.47-26.27-3.94-10.88-5.9-23.9-5.9-39.04h54.33c.16 13.96 2.53 24.25 7.12 30.88 4.6 6.39 11.64 9.58 21.14 9.58 3.61 0 7.05-.59 10.33-1.77a27.87 27.87 0 009.1-6.03c2.62-2.6 4.67-5.8 6.14-9.59a40.08 40.08 0 002.21-13.84c0-4.26-.65-7.93-1.96-11a19.7 19.7 0 00-5.9-8.17 43.16 43.16 0 00-10.82-7.1 163.37 163.37 0 00-15.98-6.74l-14.01-5.33a238.9 238.9 0 01-21.63-9.58 77.28 77.28 0 01-18.69-13.5 65.07 65.07 0 01-13.27-19.87c-3.28-8.05-4.92-17.87-4.92-29.46 0-13.73 2.13-25.68 6.4-35.85 4.26-10.18 10.07-18.58 17.45-25.2A70.09 70.09 0 01794.5 5.67C804.67 2.37 815.65.7 827.45.7c11.63 0 22.2 1.54 31.7 4.61a60.7 60.7 0 0124.34 14.56c6.72 6.39 11.89 14.55 15.5 24.5 3.76 9.93 5.64 21.64 5.64 35.13h-54.08c-.32-12.78-2.62-22-6.88-27.68S833.18 43.3 825 43.3c-6.72 0-12.46 2.48-17.21 7.45-4.75 4.97-7.13 11.83-7.13 20.59 0 4.26 1.15 8.04 3.44 11.36a41.34 41.34 0 009.1 8.87c3.6 2.6 7.54 4.97 11.8 7.1 4.42 1.9 8.6 3.55 12.53 4.97l12.05 4.61a291.5 291.5 0 0120.9 8.88 68.78 68.78 0 0118.92 13.13c5.74 5.45 10.33 12.43 13.77 20.95 3.6 8.28 5.4 18.8 5.4 31.59zM1077.47 182.8c0 16.81-2.71 30.77-8.12 41.9-5.4 10.88-12.29 19.52-20.64 25.9a76.62 76.62 0 01-27.78 13.5c-10 2.6-19.67 3.9-29.01 3.9-12.3 0-23.43-1.54-33.43-4.62-10-3.07-18.6-7.92-25.81-14.55-7.05-6.86-12.54-15.62-16.47-26.27-3.94-10.88-5.9-23.9-5.9-39.04h54.32c.17 13.96 2.54 24.25 7.13 30.88 4.6 6.39 11.64 9.58 21.14 9.58 3.6 0 7.05-.59 10.33-1.77a27.19 27.19 0 0015.24-15.62 40.2 40.2 0 002.21-13.84c0-4.26-.65-7.93-1.96-11a19.78 19.78 0 00-5.9-8.17 43.35 43.35 0 00-10.82-7.1 163.5 163.5 0 00-15.98-6.74l-14.01-5.33a238.9 238.9 0 01-21.63-9.58 77.28 77.28 0 01-18.69-13.5 65.07 65.07 0 01-13.27-19.87c-3.28-8.05-4.92-17.87-4.92-29.46 0-13.73 2.13-25.68 6.4-35.85 4.25-10.18 10.07-18.58 17.45-25.2A70.1 70.1 0 01963.4 5.67C973.57 2.37 984.54.7 996.35.7c11.63 0 22.2 1.54 31.71 4.61a60.72 60.72 0 0124.33 14.56c6.72 6.39 11.88 14.55 15.49 24.5 3.77 9.93 5.65 21.64 5.65 35.13h-54.08c-.33-12.78-2.62-22-6.88-27.68s-10.49-8.52-18.68-8.52c-6.72 0-12.46 2.48-17.21 7.45-4.75 4.97-7.13 11.83-7.13 20.59 0 4.26 1.15 8.04 3.44 11.36a41.34 41.34 0 009.1 8.87c3.6 2.6 7.54 4.97 11.8 7.1 4.42 1.9 8.6 3.55 12.53 4.97l12.05 4.61c6.88 2.6 13.85 5.57 20.89 8.88a68.7 68.7 0 0118.93 13.13c5.74 5.45 10.33 12.43 13.77 20.95 3.6 8.28 5.41 18.8 5.41 31.59zM1083.88 262.32V5.68h132.99V54.3h-80.39v54.31h76.45v47.56h-76.45v58.22h83.09v47.92h-135.69zM1333.94 262.32a173.65 173.65 0 01-2.71-15.62c-.65-5.2-1.31-10.53-1.97-15.97l-3.44-33.72a207.1 207.1 0 00-2.7-17.75c-.98-4.73-2.46-8.52-4.43-11.36a12.98 12.98 0 00-7.37-5.68c-3.11-1.18-7.13-1.78-12.05-1.78h-19.17v101.88h-54.33V5.68h85.3c10.66 0 19.51.6 26.55 1.77a50.31 50.31 0 0119.67 7.81c7.87 5.45 14.01 12.9 18.44 22.37 4.58 9.23 6.88 20.23 6.88 33 0 10.42-1.48 19.89-4.43 28.4-2.78 8.29-6.8 15.27-12.04 20.95a52.2 52.2 0 01-10.57 8.87 80.68 80.68 0 01-14.26 6.04c6.06.47 11.23 2.25 15.49 5.32a34.35 34.35 0 0110.57 11.36 59.78 59.78 0 016.88 16.33 131.83 131.83 0 013.69 18.46 1174 1174 0 015.16 45.43c.66 5.45 1.39 10.65 2.21 15.62.99 4.74 2.22 9.7 3.69 14.91h-55.06zm-2.71-179.26c0-6.62-.82-11.95-2.46-15.97-1.64-4.02-4.01-7.1-7.13-9.23a22.95 22.95 0 00-10.81-4.62 79.5 79.5 0 00-13.52-1.06h-17.21v63.18h16.72c4.75 0 9.17-.35 13.27-1.06 4.26-.95 7.95-2.6 11.06-4.97a24.17 24.17 0 007.38-9.58c1.8-4.26 2.7-9.83 2.7-16.69z" fill="#202020"/></svg>